<?xml version="1.0" encoding="UTF-8"?> <svg xmlns="http://www.w3.org/2000/svg" width="206" height="56" viewBox="0 0 206 56" fill="none"><path d="M56 28C56 43.464 43.464 56 28 56C12.536 56 0 43.464 0 28C0 20.5681 2.89543 13.8125 7.61977 8.79973C7.89614 8.0843 8.29198 7.01487 8.95877 6.4294C9.58538 5.8792 10.5418 5.44733 11.486 5.38597C16.1157 1.99931 21.8244 0 28 0C32.1931 0 36.1709 0.921698 39.7419 2.57355C42.4516 2.25806 49.28 1.68 49.28 5.04C49.28 6.84645 46.6312 7.04136 47.7267 8.12903C52.8362 13.2016 56 20.2313 56 28Z" fill="white"></path><path fill-rule="evenodd" clip-rule="evenodd" d="M53.0001 28C53.0001 14.1751 41.8121 3 28.0289 3C14.188 3 3 14.1751 3 28C3 41.8249 14.188 53.0001 28.0289 53.0001C41.8121 52.9425 53.0001 41.7673 53.0001 28Z" fill="url(#paint0_linear_5_52)"></path><path fill-rule="evenodd" clip-rule="evenodd" d="M11.4366 46.7488C15.877 50.6606 21.6164 53.0069 28.0279 53.0069C34.4395 53.0069 40.1405 50.6165 44.5191 46.7664C39.1263 45.3898 33.8403 44.7473 28.0279 44.7473C22.2156 44.7473 16.8295 45.3722 11.4366 46.7488Z" fill="#080F1C"></path><path fill-rule="evenodd" clip-rule="evenodd" d="M39.2821 45.7123C37.6338 45.7123 25.2427 45.3717 16.0347 45.8259C16.2621 43.4981 18.0241 45.3149 15.6368 42.6465C12.1696 38.7859 11.3739 34.3007 10.9192 29.2478C8.81609 30.3265 8.36137 32.3704 6.76987 33.8465C5.40572 35.0955 5.34888 30.213 5.57623 29.5884C8.02034 23.173 21.0366 17.9498 14.5001 10.9665C14.6137 10.9665 14.7274 10.9665 14.8411 11.0233C17.3989 11.4775 15.4663 11.0801 13.7611 10.1149C11.7718 9.03621 10.3508 8.4117 9.32765 8.75234C10.976 5.68654 15.4095 8.86589 17.6831 8.35492C21.3208 7.56009 23.1397 7.56009 26.0953 10.342C27.8005 4.49428 32.4045 5.80009 36.6675 5.34589C38.9411 5.1188 46.3302 2.84783 47.5239 5.51622C46.2734 5.1188 41.9536 7.04912 40.8736 7.50331C38.2022 8.58202 37.1791 10.0014 38.6 8.97944C39.0548 8.63879 39.5663 8.35492 40.1916 8.29815C40.3621 8.69557 37.2359 13.6349 36.9517 14.8839C39.7937 16.0194 43.4883 23.2865 44.4545 25.671C46.4439 30.4968 48.6607 37.3665 46.3302 37.1394C45.5345 37.0826 43.4314 33.222 42.3515 32.4839C42.1241 33.5059 40.5894 38.5588 40.5894 38.5588C40.4189 39.0697 39.5663 41.7949 37.4633 43.8388C37.2927 43.9523 37.2927 44.2929 37.4633 44.3497C38.259 44.6336 39.0548 45.3149 39.2821 45.7123ZM38.0885 40.5459C42.9767 32.4839 43.943 12.3859 30.5857 17.3252C27.0048 18.631 27.2321 23.2297 25.9248 26.0117C24.2196 29.8155 23.5944 32.8813 24.6175 36.9691C24.6743 37.3097 25.6975 39.6375 26.6637 41.2839C28.3689 44.1794 35.076 45.4852 38.0885 40.5459ZM24.3333 39.8646C24.2196 40.262 23.9923 40.6594 23.8217 40.7162C22.5713 41.3975 21.4913 37.991 21.2071 37.3665C18.763 32.3704 19.9567 26.5794 22.0029 21.6968C22.5713 20.3343 24.3901 18.3472 22.6281 17.1549C22.4008 16.9846 18.9335 16.5872 19.0472 16.3601C17.6831 15.3949 15.0684 20.6181 14.159 21.6968C10.4076 25.8981 12.6243 37.6504 16.3758 41.2271C18.422 43.1575 25.9248 44.9742 24.5607 40.0349C24.447 39.6942 24.5038 39.4104 24.3333 39.8646Z" fill="#080F1C"></path><path fill-rule="evenodd" clip-rule="evenodd" d="M21.265 10.2855C21.265 9.5474 20.6395 8.92288 19.9004 8.92288C19.1613 8.92288 18.5359 9.5474 18.5359 10.2855C18.5359 11.0235 19.1613 11.648 19.9004 11.648C20.6395 11.648 21.265 11.0235 21.265 10.2855Z" fill="white"></path><path fill-rule="evenodd" clip-rule="evenodd" d="M33.8263 8.24307C33.8263 7.50501 33.2009 6.88049 32.4618 6.88049C31.7227 6.88049 31.0973 7.50501 31.0973 8.24307C31.0973 8.98114 31.7227 9.60565 32.4618 9.60565C33.2009 9.60565 33.8263 8.98114 33.8263 8.24307Z" fill="white"></path><path fill-rule="evenodd" clip-rule="evenodd" d="M38.0882 40.5456C42.9764 32.4836 43.9426 12.3856 30.5853 17.3249C27.0044 18.6307 27.2318 23.2295 25.9245 26.0114C24.2193 29.8153 23.5941 32.8811 24.6172 36.9688C24.674 37.3094 25.6971 39.6372 26.6634 41.2836C28.3686 44.1791 35.0757 45.4849 38.0882 40.5456Z" fill="white"></path><path fill-rule="evenodd" clip-rule="evenodd" d="M24.3332 39.8664C24.2195 40.2638 23.9922 40.6612 23.8217 40.718C22.5712 41.3993 21.4912 37.9928 21.207 37.3683C18.7629 32.3722 19.9566 26.5812 22.0028 21.6986C22.5712 20.3361 24.3901 18.349 22.628 17.1567C22.4007 16.9864 18.9335 16.589 19.0471 16.3619C17.683 15.3967 15.0684 20.6199 14.1589 21.6986C10.4075 25.8999 12.6243 37.6522 16.3757 41.2289C18.4219 43.1593 25.9247 44.976 24.5606 40.0367C24.4469 39.696 24.5037 39.4122 24.3332 39.8664Z" fill="white"></path><path d="M84 21.8622V39.6493H87.9329V32.5846C88.4245 33.4113 89.1004 34.0125 89.9813 34.4134C90.8621 34.8142 91.9477 34.9896 93.2177 34.9896C95.1636 34.9896 96.6999 34.4635 97.806 33.4113C98.9122 32.3591 99.4857 30.6305 99.4857 28.2756C99.4857 25.8956 98.9122 24.167 97.806 23.1148C96.6999 22.0626 95.1636 21.5115 93.2177 21.5115C91.9067 21.5115 90.8006 21.737 89.8993 22.1628C88.998 22.5887 88.3221 23.2401 87.8509 24.1169V21.8622H84ZM95.5323 28.952C95.5323 30.1044 95.2046 30.8559 94.5696 31.2568C93.9346 31.6576 92.9924 31.833 91.7224 31.833C90.4524 31.833 89.4896 31.6576 88.8751 31.2568C88.2401 30.8559 87.9329 30.1044 87.9329 28.952V27.5741C87.9329 26.4718 88.2401 25.7202 88.8751 25.3194C89.4896 24.9186 90.4524 24.6931 91.7224 24.6931C92.9924 24.6931 93.9346 24.8935 94.5696 25.2944C95.2046 25.6952 95.5323 26.4718 95.5323 27.5741V28.952Z" fill="white"></path><path d="M100.969 28.2756C100.969 30.7307 101.584 32.4593 102.854 33.4614C104.124 34.4885 105.947 34.9896 108.343 34.9896C110.392 34.9896 112.03 34.6388 113.218 33.9123C114.407 33.2109 115.185 32.0334 115.574 30.405H111.764C111.539 30.9812 111.17 31.382 110.658 31.6326C110.146 31.8831 109.368 31.9833 108.343 31.9833C107.155 31.9833 106.274 31.7578 105.701 31.3069C105.127 30.856 104.861 30.1044 104.861 29.0021V28.7265H115.615V27.9248C115.615 25.5449 114.96 23.8914 113.669 22.9395C112.379 21.9875 110.597 21.5115 108.343 21.5115C105.947 21.5115 104.124 22.0626 102.854 23.1399C101.584 24.2171 100.969 25.9207 100.969 28.2756ZM108.343 24.3925C109.531 24.3925 110.392 24.5678 110.945 24.8685C111.477 25.1942 111.785 25.7453 111.826 26.547H104.861C104.902 25.7453 105.25 25.1942 105.865 24.8685C106.479 24.5678 107.319 24.3925 108.343 24.3925Z" fill="white"></path><path d="M128.051 34.6388H131.984V26.4217C131.984 24.643 131.513 23.3904 130.611 22.6388C129.71 21.8873 128.399 21.5115 126.699 21.5115C125.531 21.5115 124.466 21.737 123.524 22.1879C122.582 22.6388 121.906 23.3152 121.537 24.2171V21.8622H117.686V34.6388H121.619V27.2234C121.619 26.3215 121.906 25.6952 122.5 25.2944C123.094 24.9186 123.893 24.7182 124.896 24.7182C125.88 24.7182 126.658 24.9186 127.211 25.2693C127.764 25.62 128.051 26.2714 128.051 27.1733V34.6388Z" fill="white"></path><path d="M134.386 35.5157C134.632 36.9186 135.349 38.0209 136.537 38.8225C137.725 39.6242 139.486 40 141.842 40C144.341 40 146.246 39.4739 147.557 38.3967C148.868 37.3194 149.523 35.4656 149.523 32.8351V21.8622H145.631V23.9666C145.14 23.1148 144.464 22.5136 143.583 22.1127C142.702 21.7119 141.658 21.5115 140.429 21.5115C138.38 21.5115 136.803 22.0376 135.676 23.0647C134.529 24.1169 133.976 25.7954 133.976 28.1253C133.976 30.4802 134.529 32.1587 135.676 33.1607C136.823 34.1628 138.401 34.6639 140.429 34.6639C141.617 34.6639 142.641 34.4885 143.501 34.1378C144.361 33.7871 145.037 33.2109 145.529 32.4092V33.0104C145.529 34.6138 145.242 35.666 144.669 36.1921C144.095 36.7182 143.173 36.9687 141.862 36.9687C140.92 36.9687 140.183 36.8685 139.65 36.6681C139.118 36.4676 138.687 36.0668 138.38 35.5157H134.386ZM145.529 28.6013C145.529 29.7035 145.222 30.4802 144.648 30.881C144.054 31.3069 143.091 31.5073 141.739 31.5073C140.388 31.5073 139.425 31.3069 138.831 30.881C138.216 30.4802 137.93 29.7537 137.93 28.7015V27.6242C137.93 26.5219 138.216 25.7453 138.831 25.3194C139.425 24.9186 140.388 24.6931 141.739 24.6931C143.091 24.6931 144.054 24.8935 144.648 25.2944C145.222 25.6952 145.529 26.4718 145.529 27.6242V28.6013Z" fill="white"></path><path d="M152.05 29.9541C152.05 31.858 152.521 33.1858 153.463 33.9123C154.406 34.6388 155.696 34.9896 157.294 34.9896C158.461 34.9896 159.527 34.7891 160.489 34.3382C161.432 33.8873 162.108 33.1858 162.497 32.2338V34.6388H166.327V21.8622H162.394V29.2526C162.394 30.2046 162.067 30.881 161.452 31.2317C160.838 31.6075 160.059 31.7829 159.137 31.7829C158.113 31.7829 157.314 31.6326 156.782 31.2818C156.249 30.9311 155.983 30.2797 155.983 29.3278V21.8622H152.05V29.9541Z" fill="white"></path><path d="M168.996 21.8622V34.6388H172.928V21.8622H168.996ZM168.729 18.0292C168.729 18.7056 168.914 19.2317 169.323 19.5825C169.712 19.9332 170.265 20.1086 170.962 20.1086C171.679 20.1086 172.232 19.9332 172.621 19.5825C173.01 19.2317 173.215 18.7056 173.215 18.0292C173.215 17.4029 173.01 16.9019 172.621 16.5511C172.232 16.2004 171.679 16 170.962 16C170.265 16 169.712 16.2004 169.323 16.5511C168.914 16.9019 168.729 17.4029 168.729 18.0292Z" fill="white"></path><path d="M185.961 34.6388H189.894V26.4217C189.894 24.643 189.423 23.3904 188.522 22.6388C187.621 21.8873 186.31 21.5115 184.61 21.5115C183.442 21.5115 182.377 21.737 181.435 22.1879C180.492 22.6388 179.816 23.3152 179.448 24.2171V21.8622H175.597V34.6388H179.53V27.2234C179.53 26.3215 179.816 25.6952 180.41 25.2944C181.004 24.9186 181.803 24.7182 182.807 24.7182C183.79 24.7182 184.569 24.9186 185.122 25.2693C185.675 25.62 185.961 26.2714 185.961 27.1733V34.6388Z" fill="white"></path><path d="M191.743 30.5553C191.907 32.2589 192.583 33.4113 193.771 34.0376C194.939 34.6639 196.68 34.9645 198.995 34.9645C201.289 34.9645 203.03 34.6388 204.218 33.9875C205.406 33.3361 206 32.2088 206 30.6555C206 29.1273 205.467 28.1002 204.402 27.5992C203.337 27.0981 202.19 26.7975 200.92 26.6973C199.65 26.5971 198.482 26.5219 197.417 26.4718C196.352 26.4217 195.84 26.096 195.84 25.4697C195.84 25.0188 196.086 24.6931 196.577 24.5177C197.069 24.3674 197.807 24.2672 198.749 24.2672C199.63 24.2672 200.326 24.3674 200.838 24.5679C201.33 24.7683 201.657 25.1441 201.801 25.6952H205.734C205.57 24.2422 204.935 23.19 203.829 22.5136C202.702 21.8622 201.002 21.5115 198.749 21.5115C197.725 21.5115 196.782 21.5866 195.942 21.737C195.082 21.8873 194.365 22.1378 193.771 22.4635C193.177 22.8142 192.727 23.2401 192.399 23.7411C192.071 24.2672 191.907 24.8935 191.907 25.62C191.907 27.1983 192.44 28.2255 193.505 28.7015C194.57 29.2025 195.738 29.4781 197.008 29.5783C198.278 29.6785 199.445 29.7537 200.51 29.8038C201.576 29.8539 202.108 30.2296 202.108 30.9311C202.108 31.4071 201.862 31.7328 201.391 31.9081C200.92 32.1086 200.121 32.1837 198.995 32.1837C197.991 32.1837 197.212 32.0835 196.68 31.833C196.147 31.6075 195.82 31.1816 195.697 30.5553H191.743Z" fill="white"></path><path d="M66.0211 33.9248V36H81.7889V31.0411H71.277C71.5515 30.3943 72.2691 29.9631 73.4301 29.7206C74.5699 29.478 75.7942 29.1546 77.0607 28.7773C78.3272 28.4 79.467 27.7801 80.4802 26.9447C81.4934 26.1362 82 24.8156 82 23.0099C82 20.827 81.3245 19.2908 80.0158 18.3745C78.7071 17.4582 76.7652 17 74.19 17C73.0079 17 71.9314 17.1078 70.9604 17.3234C69.9894 17.539 69.1451 17.8894 68.4485 18.3745C67.7309 18.8865 67.1821 19.5872 66.7599 20.4496C66.3377 21.3121 66.0844 22.3901 66 23.6837H71.1293C71.2559 22.9291 71.5515 22.3901 71.9736 22.1206C72.3958 21.8511 73.1346 21.6894 74.19 21.6894C75.1187 21.6894 75.7942 21.7972 76.2164 21.9589C76.6385 22.1206 76.8707 22.444 76.8707 22.8752V23.0908C76.8707 23.8993 76.3008 24.4383 75.1609 24.6539C74.0211 24.8965 72.7968 25.2468 71.4459 25.7319C70.095 26.217 68.8496 27.0525 67.7098 28.2113C66.5699 29.3972 66.0211 31.2837 66.0211 33.9248Z" fill="#F37A11"></path><defs><linearGradient id="paint0_linear_5_52" x1="28" y1="3" x2="28" y2="53.0001" gradientUnits="userSpaceOnUse"><stop stop-color="#FFE68D"></stop><stop offset="1" stop-color="#FB9953"></stop></linearGradient></defs></svg> 