<svg viewBox="0 0 264 58" fill="none" xmlns="http://www.w3.org/2000/svg">
<g clip-path="url(#clip0)">
<path d="M61.093 17.235C60.5892 15.9174 59.9537 14.6779 59.229 13.4736C56.5977 9.18444 52.924 5.85318 48.1691 3.51894C43.4336 1.16516 37.8765 0 31.5172 0C28.3473 0 25.3827 0.301065 22.6042 0.883646C19.8257 1.48578 17.2719 2.34987 14.9196 3.51894C12.5712 4.66846 10.4825 6.09559 8.65339 7.75341C6.80878 9.42686 5.23931 11.3271 3.95273 13.4736C2.64678 15.6006 1.6586 17.9349 1.00756 20.4529C0.337145 22.9748 0 25.7039 0 28.6207C0 34.4348 1.32533 39.4982 3.95273 43.7874C6.56464 48.0766 10.2577 51.4079 14.9933 53.7421C19.7288 56.0763 25.2704 57.2415 31.5909 57.2415C34.7414 57.2415 37.706 56.96 40.4845 56.3578C43.2631 55.7753 45.8362 54.8916 48.1691 53.7421C50.5175 52.5769 52.6062 51.1654 54.4547 49.4881C56.2838 47.8342 57.8494 45.9144 59.1554 43.7874C59.8645 42.6027 60.4962 41.3593 61.0194 40.0417C61.465 38.9899 61.8409 37.8951 62.1393 36.769C62.8291 34.2276 63.1662 31.5024 63.1662 28.6207C63.1662 24.4449 62.4958 20.6445 61.0969 17.2389L61.093 17.235ZM54.6058 34.9587C54.1408 36.9528 53.451 38.7983 52.4977 40.4718C51.5444 42.1452 50.3896 43.6153 49.01 44.8939C47.6498 46.192 46.0803 47.3024 44.3094 48.2252C42.5578 49.1479 40.5969 49.8634 38.4733 50.3326C36.3303 50.8409 33.9974 51.0677 31.5172 51.0677C26.6112 51.0677 22.3794 50.1449 18.8181 48.3034C15.2568 46.4422 12.5131 43.8265 10.6298 40.4366C8.74639 37.031 7.81246 33.0976 7.81246 28.6207C7.81246 26.3647 8.03722 24.2377 8.541 22.2593C9.00603 20.2848 9.73457 18.4588 10.6685 16.7854C11.6179 15.1119 12.7573 13.6418 14.1175 12.3437C15.4622 11.0651 17.0278 9.9547 18.7794 9.03195C20.531 8.10921 22.4918 7.39369 24.6348 6.90495C26.7623 6.41621 29.0913 6.16988 31.5909 6.16988C36.5899 6.16988 40.841 7.09263 44.3481 8.95376C47.8746 10.7992 50.5756 13.415 52.459 16.7814C54.3423 20.1479 55.2918 24.1009 55.2918 28.6168C55.2918 30.8377 55.0476 32.9451 54.602 34.9587H54.6058Z" fill="var(--fill-0, #DADBE0)"/>
<path d="M68.2002 17.2428H61.0116V56.8974H68.2002V17.2428Z" fill="var(--fill-0, #DADBE0)"/>
<path d="M104.093 34.2119V56.8935H96.9079V35.4475C96.9079 32.6206 96.408 30.2004 95.4159 28.1985C94.42 26.1927 92.9435 24.6365 90.9826 23.53C89.0179 22.4235 86.5339 21.8683 83.5267 21.8683C81.6046 21.8683 79.8259 22.1263 78.206 22.6424C77.2605 20.1675 77.9386 17.7277 78.206 17.3171C80.5738 16.5429 83.1121 16.1559 85.817 16.1559C88.5219 16.1559 91.1415 16.539 93.3853 17.3132C95.629 18.0835 97.5512 19.2291 99.1594 20.7461C100.764 22.2671 101.988 24.1517 102.829 26.4155C103.67 28.6794 104.089 31.2756 104.089 34.2041L104.093 34.2119Z" fill="var(--fill-0, #DADBE0)"/>
<path d="M195.172 28.6598C192.727 27.479 189.82 26.654 186.457 26.1927L169.94 23.7255C167.495 23.315 165.414 22.7597 163.709 22.0677C162 21.3756 160.702 20.4607 159.811 19.3307C158.919 18.2008 158.474 16.8362 158.474 15.2409C158.474 13.3915 159.125 11.808 160.423 10.4982C161.721 9.18835 163.647 8.16004 166.197 7.41324C168.747 6.66644 171.905 6.295 175.68 6.295C179.454 6.295 182.702 6.70554 185.124 7.53054C187.546 8.35553 189.379 9.48551 190.63 10.9244C191.878 12.3632 192.657 14.0093 192.963 15.8626H200.687C200.582 13.806 200.035 11.8393 199.043 9.96252C198.047 8.08575 196.571 6.41621 194.606 4.94607C192.645 3.47984 190.119 2.3225 187.038 1.47405C183.953 0.62559 180.218 0.199407 175.835 0.199407C171.859 0.199407 168.317 0.559121 165.209 1.27855C162.101 1.99798 159.462 3.02629 157.296 4.36349C155.129 5.70069 153.486 7.30767 152.362 9.18444C151.242 11.0612 150.681 13.1843 150.681 15.5498C150.681 18.1226 151.177 20.2808 152.173 22.0286C153.168 23.7763 154.529 25.1917 156.265 26.2709C157.997 27.35 159.946 28.1985 162.112 28.8162C164.279 29.434 166.507 29.9462 168.801 30.3607L184.628 32.6753C187.123 33.0351 189.138 33.6137 190.669 34.4114C192.2 35.209 193.32 36.1865 194.033 37.3438C194.746 38.5011 195.102 39.7758 195.102 41.1638C195.102 43.4277 194.389 45.3162 192.963 46.8332C191.537 48.3503 189.448 49.4685 186.693 50.1879C183.942 50.9074 180.574 51.2671 176.602 51.2671C173.289 51.2671 170.433 50.9856 168.038 50.4186C165.643 49.8517 163.655 49.058 162.074 48.0258C160.493 46.9974 159.256 45.801 158.365 44.4403C157.474 43.0797 156.769 40.7572 156.769 38.3917H148.844C148.844 41.2107 149.619 44.4403 150.715 46.5243C151.812 48.6083 153.455 50.4734 155.649 52.1195C157.838 53.7655 160.667 55.0636 164.135 56.0138C167.6 56.9639 171.754 57.4409 176.598 57.4409C180.83 57.4409 184.573 57.0812 187.836 56.3617C191.099 55.6423 193.851 54.5749 196.094 53.1595C198.338 51.7441 200.032 50.0081 201.179 47.9515C202.326 45.8948 202.899 43.4785 202.899 40.6985C202.899 37.9186 202.221 35.3888 200.873 33.4104C199.52 31.432 197.621 29.8485 195.176 28.6637L195.172 28.6598Z" fill="var(--fill-0, #DADBE0)"/>
<path d="M250.32 6.51786H243.132V46.1685C243.132 49.6132 244.174 52.2641 246.267 54.1135C248.356 55.9629 251.212 56.8896 254.831 56.8896H263.167V51.4118H256.439C254.707 51.4118 253.254 50.9113 252.08 49.9064C250.906 48.9016 250.32 47.3493 250.32 45.238V6.51786Z" fill="var(--fill-0, #DADBE0)"/>
<path d="M146.038 25.4576C144.116 22.3531 141.415 19.925 137.927 18.2125C134.439 16.4804 130.301 15.6163 125.507 15.6163C122.655 15.6163 120.004 15.9369 117.602 16.5742C115.176 17.2311 113.013 18.1538 111.091 19.3581C109.188 20.5624 107.565 22.0129 106.243 23.7216C105.088 25.1878 104.174 26.8456 103.503 28.6716C103.372 28.9335 103.279 29.219 103.186 29.5005C102.457 31.6627 102.105 33.9773 102.105 36.4445C102.105 39.9439 102.775 43.0875 104.1 45.8323C104.36 46.3953 104.658 46.9622 104.976 47.4862C106.898 50.6102 109.599 53.0539 113.126 54.8056C116.633 56.5572 120.771 57.4213 125.507 57.4213C127.352 57.4213 129.107 57.2884 130.766 57.0069V51.099C129.2 51.5134 127.445 51.7206 125.507 51.7206C121.981 51.7206 119.055 51.0638 116.706 49.707C114.373 48.3698 112.603 46.5478 111.39 44.2331C110.196 41.9184 109.599 39.3222 109.599 36.4445C109.599 34.6929 109.824 33.0585 110.25 31.5532C110.68 30.0283 111.312 28.6364 112.153 27.3774C113.009 26.134 114.056 25.0431 115.342 24.14C116.609 23.2368 118.101 22.5603 119.799 22.0716C121.516 21.5829 123.418 21.3365 125.507 21.3365C129.033 21.3365 131.959 21.9778 134.327 23.2915C136.714 24.6091 138.485 26.396 139.644 28.6559C140.353 30.0283 140.857 31.5141 141.136 33.1328H119.551L117.64 35.2403L117.633 36.4797L119.551 38.3799H148.84C148.879 37.7387 148.894 37.1014 148.894 36.4406C148.894 32.2257 147.945 28.5582 146.042 25.4537L146.038 25.4576Z" fill="var(--fill-0, #DADBE0)"/>
<path d="M263.175 18.7051V24.312H260.257L259.35 22.5486V20.4685L260.257 18.7051H263.175Z" fill="var(--fill-0, #DADBE0)"/>
<path d="M145.887 48.8899H137.427V57.4252H145.887V48.8899Z" fill="var(--fill-0, #DADBE0)"/>
<path d="M241.617 25.4576C239.695 22.3531 236.993 19.925 233.506 18.2125C230.018 16.4804 225.879 15.6163 221.086 15.6163C218.233 15.6163 215.583 15.9369 213.18 16.5742C210.754 17.2311 208.592 18.1538 206.67 19.3581C204.767 20.5624 203.143 22.0129 201.822 23.7216C200.667 25.1878 199.753 26.8456 199.082 28.6716C198.95 28.9335 198.857 29.219 198.764 29.5005C198.036 31.6627 197.683 33.9773 197.683 36.4445C197.683 39.9439 198.354 43.0875 199.679 45.8323C199.939 46.3953 200.237 46.9622 200.555 47.4862C202.477 50.6102 205.178 53.0539 208.704 54.8056C212.211 56.5572 216.35 57.4213 221.086 57.4213C222.93 57.4213 224.686 57.2884 226.344 57.0069V51.099C224.779 51.5134 223.023 51.7206 221.086 51.7206C217.559 51.7206 214.633 51.0638 212.285 49.707C209.952 48.3698 208.181 46.5478 206.968 44.2331C205.775 41.9184 205.178 39.3222 205.178 36.4445C205.178 34.6929 205.403 33.0585 205.829 31.5532C206.259 30.0283 206.891 28.6364 207.732 27.3774C208.588 26.134 209.634 25.0431 210.921 24.14C212.188 23.2368 213.68 22.5603 215.377 22.0716C217.094 21.5829 218.997 21.3365 221.086 21.3365C224.612 21.3365 227.538 21.9778 229.906 23.2915C232.293 24.6091 234.064 26.396 235.222 28.6559C235.932 30.0283 236.435 31.5141 236.714 33.1328H215.129L213.219 35.2403L213.211 36.4797L215.129 38.3799H244.418C244.457 37.7387 244.473 37.1014 244.473 36.4406C244.473 32.2257 243.523 28.5582 241.621 25.4537L241.617 25.4576Z" fill="var(--fill-0, #DADBE0)"/>
<g>
<path d="M113.602 33.1367H111.622V38.3799H113.602V33.1367Z" fill="var(--fill-0, #33363B)"/>
<path d="M115.586 33.1367H113.606V38.3799H115.586V33.1367Z" fill="var(--fill-0, #5F6268)"/>
<path d="M117.567 33.1367H115.586V38.3799H117.567V33.1367Z" fill="var(--fill-0, #999CA5)"/>
<path d="M119.547 33.1367H117.567V38.3799H119.547V33.1367Z" fill="var(--fill-0, #DADBE0)"/>
</g>
<g>
<path d="M72.2614 20.664V26.2982C71.5135 27.0685 70.8586 27.9169 70.2967 28.8514C70.2889 28.8592 70.285 28.8749 70.2773 28.8827V22.7949C70.7656 22.1459 71.2965 21.5555 71.8623 21.0237C71.994 20.9025 72.1219 20.7813 72.2575 20.6679L72.2614 20.664Z" fill="var(--fill-0, #33363B)"/>
<path d="M74.2455 19.1743V24.6131C73.5247 25.1213 72.8621 25.6805 72.2614 26.2943V20.6601C72.8853 20.1127 73.5441 19.6201 74.2455 19.1704V19.1743Z" fill="var(--fill-0, #5F6268)"/>
<path d="M76.2258 18.0991V23.444C76.0165 23.5456 75.815 23.6512 75.6135 23.7646C75.1368 24.0305 74.6795 24.3159 74.2455 24.617V19.1782C74.8733 18.7794 75.536 18.4197 76.2258 18.0991Z" fill="var(--fill-0, #999CA6)"/>
<path d="M78.2099 17.321V22.6464C77.524 22.8653 76.8574 23.1312 76.2258 23.444V18.0991C76.8264 17.8215 77.4503 17.5752 78.0975 17.3601C78.1362 17.3484 78.1711 17.3367 78.2099 17.3249V17.321Z" fill="var(--fill-0, #DADBE0)"/>
</g>
<g>
<path d="M209.181 33.1367H207.201V38.3799H209.181V33.1367Z" fill="var(--fill-0, #33363B)"/>
<path d="M211.161 33.1367H209.181V38.3799H211.161V33.1367Z" fill="var(--fill-0, #5F6268)"/>
<path d="M213.141 33.1367H211.161V38.3799H213.141V33.1367Z" fill="var(--fill-0, #999CA5)"/>
<path d="M215.126 33.1367H213.145V38.3799H215.126V33.1367Z" fill="var(--fill-0, #DADBE0)"/>
</g>
<g>
<path d="M254.312 18.7051H252.332V24.312H254.312V18.7051Z" fill="var(--fill-0, #33363B)"/>
<path d="M256.292 18.7051H254.312V24.312H256.292V18.7051Z" fill="var(--fill-0, #5F6268)"/>
<path d="M258.272 18.7051H256.292V24.312H258.272V18.7051Z" fill="var(--fill-0, #999CA5)"/>
<path d="M260.253 18.7051H258.272V24.312H260.253V18.7051Z" fill="var(--fill-0, #DADBE0)"/>
</g>
</g>
<defs>
<clipPath id="clip0">
<rect width="264" height="58" fill="white"/>
</clipPath>
</defs>
</svg>
