<?xml version="1.0" encoding="UTF-8"?> <svg xmlns="http://www.w3.org/2000/svg" width="128" height="64" fill="none"><g clip-path="url(#a)"><path fill="#001C22" d="M23.952 62.103c-1.61 0-2.784-.336-3.53-1.008-.748-.673-1.12-1.62-1.12-2.837v-7.255c0-1.237.359-2.192 1.085-2.857.727-.666 1.867-1.002 3.422-1.002.923 0 1.731.107 2.424.316.692.215 1.324.47 1.907.766l-.196-1.284a5.925 5.925 0 0 0-1.134-.504 9.874 9.874 0 0 0-1.494-.37 11.09 11.09 0 0 0-1.86-.148c-2.098 0-3.652.43-4.664 1.298-1.012.867-1.52 2.11-1.52 3.724v7.363c0 1.606.502 2.85 1.513 3.724 1.012.874 2.607 1.311 4.793 1.311.686 0 1.31-.047 1.88-.148.564-.094 1.08-.221 1.535-.37.455-.147.828-.309 1.114-.477l.196-1.338a9.96 9.96 0 0 1-1.914.774c-.7.208-1.507.309-2.43.309l-.007.013ZM36.647 45.927c-2.213 0-3.89.444-5.024 1.338-1.134.894-1.697 2.185-1.697 3.873v7.012c0 1.688.564 2.978 1.697 3.866 1.134.887 2.81 1.331 5.024 1.331 2.213 0 3.89-.444 5.03-1.331 1.141-.888 1.712-2.178 1.712-3.866v-7.012c0-1.688-.57-2.979-1.711-3.873-1.14-.894-2.818-1.338-5.03-1.338Zm4.725 12.304c0 1.264-.387 2.238-1.167 2.924-.781.686-1.962 1.029-3.558 1.029-1.595 0-2.756-.343-3.53-1.029-.767-.686-1.154-1.66-1.154-2.924v-7.188c0-1.27.387-2.252 1.154-2.931.774-.679 1.948-1.022 3.53-1.022 1.582 0 2.784.343 3.558 1.022.773.68 1.167 1.66 1.167 2.931v7.188ZM68.515 53.84l.115 7.867h-.217l-7.89-15.558h-3.142v15.558h-.095l-7.89-15.558h-3.143v16.963h1.915v-7.537l-.136-8.061h.238l7.909 15.598h3.143V47.514h.075l7.91 15.598h3.142V46.149h-1.934v7.691ZM75.154 55.01h8.385v-1.17h-8.385v-6.508h8.561v-1.17H73.22v16.95H83.755v-1.184h-8.602V55.01ZM92.799 62.103c-1.609 0-2.784-.336-3.53-1.008-.747-.673-1.114-1.62-1.114-2.837v-7.255c0-1.237.36-2.192 1.087-2.857.726-.666 1.867-1.002 3.421-1.002.924 0 1.731.107 2.424.316.692.215 1.324.47 1.908.766l-.197-1.284a5.813 5.813 0 0 0-1.14-.504 9.874 9.874 0 0 0-1.494-.37 11.151 11.151 0 0 0-1.86-.148c-2.098 0-3.653.43-4.665 1.298-1.011.867-1.52 2.11-1.52 3.724v7.363c0 1.606.502 2.85 1.514 3.724 1.011.874 2.607 1.311 4.793 1.311.685 0 1.31-.047 1.88-.148a10.67 10.67 0 0 0 1.535-.37c.454-.147.828-.309 1.113-.477l.197-1.338a9.96 9.96 0 0 1-1.915.774c-.699.208-1.507.309-2.43.309l-.007.013ZM110.729 46.162H97.864v1.184h5.41v15.766h2.037V47.346h5.418v-1.184ZM97.585 9.944V.249a.153.153 0 0 0-.156-.155h-8.5a.153.153 0 0 0-.156.155v14.448c0 1.291 1.555 1.963 2.512 1.09l6.253-5.729s.047-.074.047-.114ZM108.509 15.591 125.563.095h-6.524a10.993 10.993 0 0 0-7.407 2.871L88.759 23.928v12.163h5.35c1.915 0 3.47-1.54 3.47-3.436v-8.451l4.623-3.826 12.424 13.171a8.132 8.132 0 0 0 5.913 2.542h7.454l-19.491-20.5h.007ZM13.992 18.731 9.858 2.468A3.161 3.161 0 0 0 6.782.094H0l8.045 28.01c.502 1.754 3.028 1.727 3.49-.04l2.457-9.333ZM49.947.094a5.196 5.196 0 0 0-5.065 3.96l-5.757 23.902h-.095L31.711.094h-4.548c-2.268 0-4.25 1.513-4.82 3.691l-8.5 32.306h3.313a3.523 3.523 0 0 0 3.394-2.528c2.451-8.458 5.357-18.738 6.348-24.291h.054l6.47 24.022a3.794 3.794 0 0 0 3.673 2.797h6.626L54.713.094h-4.766Z"></path><path fill="url(#b)" d="M84.055 31.304c-1.134-.034-2.146-.256-3.021-.686a5.648 5.648 0 0 1-.856-.531c1.643-1.412 3.008-3.006 4.06-4.82a15.341 15.341 0 0 0 2.057-6.576l-6.551-1.27c.068 1.861-.218 3.59-.856 5.176a11.59 11.59 0 0 1-2.308 3.617S64.435 13.117 64 12.606c-.557-.645-.957-1.264-1.208-1.849a4.567 4.567 0 0 1-.38-1.822c0-1.344.454-2.38 1.357-3.092.91-.713 2.234-1.076 3.979-1.076 1.581 0 2.783.302 3.618.914.828.605 1.25 1.486 1.25 2.629 0 .867-.198 1.634-.578 2.293-.387.665-1.14 1.324-2.267 1.97-.252.147-.537.295-.842.443l3.259 3.496c1.1-.51 2.07-1.021 2.885-1.533 1.69-1.055 2.899-2.158 3.625-3.307.733-1.15 1.093-2.448 1.093-3.893 0-2.562-1.032-4.498-3.096-5.816-2.063-1.31-5.132-1.97-9.199-1.97-4.066 0-7.216.726-9.307 2.185-2.091 1.46-3.137 3.604-3.137 6.448 0 1.029.19 2.024.564 2.972.38.948 1.018 1.936 1.914 2.971a20.603 20.603 0 0 0 1.813 1.809c-1.643.679-3.069 1.432-4.25 2.273-1.351.954-2.404 2.11-3.164 3.469-.753 1.358-1.134 2.938-1.134 4.753 0 1.93.53 3.59 1.589 4.989 1.06 1.398 2.593 2.467 4.596 3.207 2.01.74 4.406 1.11 7.197 1.11 2.097 0 4.154-.276 6.157-.835.598-.168 1.168-.383 1.738-.598l-3.74-4.135a15.351 15.351 0 0 1-3.32.377c-1.46 0-2.716-.202-3.768-.612-1.053-.41-1.854-.988-2.404-1.748-.55-.76-.828-1.654-.828-2.683 0-1.028.245-2.01.733-2.783a6.36 6.36 0 0 1 1.99-1.97c.645-.417 1.46-.807 2.369-1.19l8.588 9.42s3.74 4.087 4.684 4.86c.93.767 2.03 1.17 3.096 1.46 1.066.288 2.139.436 3.211.436.516 0 .971-.027 1.399-.06v-4.814h-.027Z"></path></g><defs><linearGradient id="b" x1="50.789" x2="86.288" y1="18.092" y2="18.092" gradientUnits="userSpaceOnUse"><stop stop-color="#B9934A"></stop><stop offset="1" stop-color="#E1CE7F"></stop></linearGradient><clipPath id="a"><path fill="#fff" d="M0 0h128v64H0z"></path></clipPath></defs></svg> 