<?xml version="1.0" encoding="UTF-8"?> <svg xmlns="http://www.w3.org/2000/svg" width="151" height="106" viewBox="0 0 151 106" fill="none"><path fill-rule="evenodd" clip-rule="evenodd" d="M39.3666 105.398C40.5565 105.803 41.9628 106 43.5855 106V105.989C45.0659 105.989 46.364 105.843 47.4913 105.545C48.6187 105.247 49.5524 104.797 50.304 104.201C51.0555 103.605 51.6192 102.88 52.0064 102.014C52.3935 101.148 52.5871 100.164 52.5871 99.0509V84.2755H49.4613L49.3361 87.3003H49.1482C48.6073 86.2939 47.7874 85.4899 46.6828 84.8939C45.5783 84.298 44.3143 84 42.7486 84C41.1828 84 39.805 84.3205 38.6093 84.9558C37.408 85.5967 36.4742 86.4963 35.7967 87.6714C35.1191 88.8408 34.7832 90.2182 34.7832 91.8037C34.7832 92.9507 34.9654 94.0077 35.3298 94.9635C35.6942 95.9192 36.2123 96.7345 36.8898 97.4148C37.5617 98.0951 38.3873 98.6236 39.3552 99.0059C40.3231 99.3882 41.4106 99.5794 42.6176 99.5794C44.0524 99.5794 45.3733 99.2814 46.569 98.6854C47.7646 98.0894 48.613 97.2798 49.114 96.251H49.3019V99.3657C49.3019 100.395 49.0628 101.232 48.5959 101.879C48.1233 102.525 47.4686 102.992 46.6259 103.279C45.7776 103.566 44.7755 103.712 43.6083 103.712C42.6916 103.712 41.8717 103.605 41.143 103.403C40.4142 103.2 39.8334 102.885 39.395 102.464C38.9566 102.042 38.6776 101.525 38.5524 100.906H35.3981C35.5234 101.935 35.9219 102.84 36.5881 103.622C37.2542 104.403 38.1823 104.999 39.3666 105.398ZM46.6145 96.5152C45.7605 96.9144 44.7755 97.1168 43.6482 97.1168V97.128C42.5265 97.128 41.5472 96.9144 40.7273 96.4927C39.9075 96.071 39.2584 95.4582 38.7915 94.6542C38.3189 93.8559 38.0855 92.8776 38.0855 91.7869C38.0855 90.6961 38.3189 89.7572 38.7744 88.9645C39.2299 88.1717 39.8847 87.5533 40.7273 87.0979C41.57 86.6425 42.5834 86.4176 43.7108 86.4176C44.8381 86.4176 45.8231 86.6312 46.6658 87.0641C47.5084 87.4971 48.1632 88.0818 48.6187 88.8239C49.0799 89.5604 49.3076 90.415 49.3076 91.3821V92.4615C49.3076 93.3442 49.0685 94.1426 48.6016 94.851C48.129 95.5594 47.4686 96.116 46.6145 96.5152ZM17.7195 99.5906C18.8696 100.411 20.3328 100.822 22.1263 100.822L22.1149 100.816C23.9084 100.816 25.4115 100.518 26.63 99.9223C27.8484 99.3263 28.6512 98.5673 29.0497 97.6397H29.1809C29.1936 98.2414 29.2268 98.7795 29.2832 99.2589C29.3572 99.8886 29.4483 100.316 29.5508 100.541H32.5798C32.5228 100.355 32.4545 100.102 32.3805 99.7818C32.3065 99.4613 32.2552 99.079 32.2268 98.6236C32.1983 98.1738 32.1812 97.7015 32.1812 97.2067V89.8359C32.1812 88.7677 31.9876 87.8513 31.6005 87.0923C31.219 86.3332 30.6781 85.7317 29.9778 85.2875C29.2832 84.8433 28.4576 84.5229 27.5125 84.3148C26.5673 84.1068 25.5197 84.0056 24.3753 84.0056C22.1662 84.0056 20.3556 84.4498 18.955 85.3325C17.5487 86.2152 16.7743 87.5308 16.6263 89.2793H19.8147C19.8944 88.5822 20.1336 88.0199 20.5321 87.5983C20.925 87.1766 21.4488 86.8674 22.1092 86.6593C22.764 86.4513 23.5269 86.3501 24.4038 86.3501C25.4058 86.3501 26.2371 86.4794 26.9033 86.7381C27.5694 86.9967 28.0648 87.3846 28.4007 87.8962C28.7366 88.4079 28.9017 89.0488 28.9017 89.8078V91.011H23.8401C22.7128 91.011 21.6708 91.0897 20.7143 91.2415C19.7578 91.3933 18.9322 91.6688 18.2319 92.0567C17.5373 92.4503 16.9907 92.9788 16.5921 93.6478C16.1993 94.3169 16 95.1434 16 96.1329C16 97.6172 16.5751 98.7697 17.7195 99.5906ZM27.3587 97.6622C26.3282 98.2862 24.9674 98.6011 23.2821 98.6011H23.2878C21.9954 98.6011 21.0104 98.3537 20.3328 97.8589C19.6553 97.3642 19.3194 96.6895 19.3194 95.8237C19.3194 95.0197 19.5243 94.4068 19.9286 93.9852C20.3328 93.5635 20.925 93.2711 21.6936 93.1081C22.4622 92.9451 23.3504 92.8607 24.3468 92.8607H28.9074V94.806C28.9074 96.0823 28.3893 97.0325 27.3587 97.6622ZM64.7031 100.822C62.7673 100.822 61.0934 100.485 59.687 99.8042C58.2807 99.1239 57.1876 98.1569 56.4075 96.9031C55.6275 95.6494 55.2346 94.1763 55.2346 92.4897C55.2346 90.803 55.6218 89.2343 56.3904 87.9693C57.1591 86.7043 58.2466 85.726 59.6529 85.0401C61.0592 84.3486 62.7217 84.0056 64.6348 84.0056C66.5478 84.0056 68.2673 84.3654 69.6622 85.0851C71.0572 85.8048 72.0991 86.8336 72.788 88.1717C73.477 89.5098 73.7559 91.1234 73.6307 93.0181H58.5426C58.5825 94.1482 58.8615 95.1209 59.3739 95.9305C59.8863 96.7457 60.598 97.3642 61.5147 97.7971C62.4314 98.23 63.5245 98.4437 64.7942 98.4437C66.229 98.4437 67.4531 98.1794 68.4666 97.6565C69.4744 97.1337 70.1177 96.4253 70.3853 95.5426H73.5396C73.3745 96.5939 72.8848 97.5104 72.0706 98.3031C71.2565 99.0958 70.2088 99.7143 68.9278 100.153C67.6467 100.591 66.2347 100.816 64.6974 100.816L64.7031 100.822ZM70.3521 91.0391H58.5158C58.6441 90.1342 58.9371 89.3429 59.4081 88.6609C59.9205 87.9187 60.6151 87.3509 61.4862 86.9629C62.3573 86.575 63.3879 86.3782 64.5779 86.3782C65.7678 86.3782 66.787 86.5694 67.641 86.9517C68.4951 87.334 69.1612 87.8906 69.6395 88.6328C70.079 89.3147 70.3165 90.1154 70.3521 91.0391ZM76.4832 84.2811V100.541L76.4775 100.552H79.7855V92.4672C79.7855 91.2921 80.0417 90.2632 80.5541 89.3805C81.0665 88.4922 81.7668 87.8063 82.6494 87.3115C83.5319 86.8168 84.5738 86.5694 85.7581 86.5694C86.8854 86.5694 87.8078 86.7718 88.5252 87.171C89.2482 87.5702 89.7835 88.1886 90.1365 89.0207C90.4895 89.8528 90.666 90.9042 90.666 92.1804V100.541H93.9455V91.6238C93.9455 90.207 93.769 89.0095 93.416 88.0312C93.063 87.0529 92.5676 86.2714 91.9299 85.6867C91.2923 85.102 90.5407 84.6747 89.6639 84.4048C88.7871 84.1406 87.8305 84.0056 86.7886 84.0056C85.3481 84.0056 84.0101 84.3261 82.7575 84.9614C81.5049 85.5967 80.5883 86.5132 80.0075 87.7051H79.7912L79.7001 84.2811H76.4832ZM105.788 100.822C104.37 100.822 103.089 100.625 101.945 100.237C100.801 99.8436 99.8213 99.2814 99.0071 98.5392C98.1929 97.7971 97.5723 96.9144 97.151 95.8855C96.724 94.8566 96.5076 93.6928 96.5076 92.3997C96.5076 90.6905 96.9005 89.2175 97.6919 87.975C98.4833 86.7324 99.5878 85.7598 101.006 85.057C102.423 84.3598 104.074 84.0056 105.976 84.0056C107.599 84.0056 109.051 84.253 110.332 84.7478C111.613 85.2425 112.632 85.9172 113.395 86.783C114.158 87.6489 114.596 88.6777 114.721 89.8697H111.442C111.254 89.15 110.901 88.5484 110.377 88.0649C109.859 87.5814 109.216 87.2103 108.458 86.9573C107.696 86.6987 106.859 86.5694 105.942 86.5694C104.695 86.5694 103.608 86.8168 102.691 87.3115C101.774 87.8063 101.062 88.4866 100.55 89.3637C100.038 90.2407 99.7814 91.2527 99.7814 92.4053C99.7814 93.6197 100.026 94.6655 100.516 95.5369C101.006 96.4084 101.706 97.0831 102.611 97.5553C103.516 98.0276 104.604 98.2637 105.874 98.2637C106.83 98.2637 107.701 98.1176 108.481 97.8196C109.261 97.5216 109.916 97.1112 110.451 96.5827C110.986 96.0542 111.339 95.447 111.527 94.7498H114.841C114.676 95.9642 114.175 97.0268 113.344 97.9433C112.512 98.8597 111.436 99.5681 110.127 100.074C108.817 100.58 107.365 100.833 105.782 100.833L105.788 100.822ZM116.754 103.071V105.691L116.76 105.685H119.1C120.119 105.685 121.024 105.561 121.804 105.303C122.584 105.05 123.273 104.628 123.865 104.055C124.458 103.481 124.964 102.762 125.38 101.896L134 84.2811H130.533L126.12 93.7828L124.998 96.251H124.811L123.626 93.8165L118.94 84.2811H115.348L123.278 99.3913L122.601 100.844C122.351 101.322 122.066 101.727 121.742 102.064C121.417 102.407 121.024 102.66 120.569 102.823C120.108 102.986 119.521 103.071 118.815 103.071H116.754Z" fill="#F96C40"></path><path fill-rule="evenodd" clip-rule="evenodd" d="M138.436 32.7838C142.482 34.3339 145.418 36.4575 147.258 39.1778C149.084 41.8904 150 45.2618 150 49.2997C150 54.291 148.517 58.6234 145.542 62.3125C142.575 66.0017 138.405 68.877 133.023 70.9231C127.656 72.9692 121.583 74 114.251 74C106.92 74 100.458 72.9692 94.8664 70.9231C94.3499 70.7352 91.9312 69.6142 90.6855 69.0332L89.6396 72.4267H64.3212L55.6586 36.4283L46.9323 72.4267H21.7148L0 1.44934H20.8605L35.0828 51.6995L45.5343 1.44934H65.8279L76.3107 51.5721L81.1927 34.327C78.7056 31.1866 77.462 27.3462 77.462 22.8092C77.462 17.8877 78.8988 13.7181 81.7801 10.3157C84.6459 6.90553 88.6999 4.34018 93.9189 2.59635C99.1224 0.868035 105.343 0 112.17 0C118.997 0 125.062 0.961039 130.374 2.88312C135.687 4.81294 139.904 7.5333 143.034 11.0674C146.163 14.6093 147.849 18.7015 148.105 23.3749H128.192C127.943 21.6699 127.128 20.2051 125.769 18.9728C124.418 17.7405 122.569 16.8027 120.231 16.1284C117.886 15.4696 115.075 15.1364 111.789 15.1364C107.363 15.1364 103.86 15.7254 101.266 16.8957C98.672 18.0582 97.375 19.7788 97.375 22.0419C97.375 23.6927 98.1439 25.018 99.6971 26.0256C101.25 27.0331 104.039 27.7306 108.093 28.1026L122.22 29.5209C128.984 30.1565 134.39 31.2493 138.436 32.7838ZM83.4104 36.6571C85.5 40 91.549 44.2845 97.8838 45.6774L96.0278 51.6992C100.5 56.5 107.234 58.8636 114.64 58.8636C119.439 58.8636 123.237 58.2436 126.01 57.0113C128.798 55.779 130.188 53.9732 130.188 51.5706C130.188 49.7415 129.388 48.331 127.819 47.3079C126.235 46.3004 123.206 45.5796 118.709 45.1378L105.436 43.9055C95.6353 43.022 88.5213 40.8054 84.1022 37.2403C83.8653 37.0494 83.6347 36.855 83.4104 36.6571Z" fill="#F8FBFD"></path></svg> 