<?xml version="1.0" encoding="UTF-8"?> <svg xmlns="http://www.w3.org/2000/svg" width="72" height="72" viewBox="0 0 72 72" fill="none"><path d="M72 36C72 55.8823 55.8823 72 36 72C16.1177 72 0 55.8823 0 36C0 26.4448 3.72269 17.759 9.79684 11.3139C10.1522 10.3941 10.6611 9.01911 11.5184 8.26637C12.3241 7.55897 13.5537 7.00371 14.7677 6.92482C20.7202 2.57054 28.0599 0 36 0C41.3911 0 46.5055 1.18504 51.0968 3.30884C54.5806 2.90323 63.36 2.16 63.36 6.48C63.36 8.80258 59.9544 9.05318 61.363 10.4516C67.9322 16.9735 72 26.0117 72 36Z" fill="white"></path><path fill-rule="evenodd" clip-rule="evenodd" d="M68.143 35.9998C68.143 18.225 53.7584 3.85693 36.0371 3.85693C18.2418 3.85693 3.85715 18.225 3.85715 35.9998C3.85715 53.7747 18.2418 68.1428 36.0371 68.1428C53.7584 68.0687 68.143 53.7007 68.143 35.9998Z" fill="url(#paint0_linear_270_203)"></path><path fill-rule="evenodd" clip-rule="evenodd" d="M14.7043 60.1051C20.4133 65.1345 27.7925 68.1512 36.0359 68.1512C44.2793 68.1512 51.6092 65.0778 57.2389 60.1277C50.3052 58.3578 43.5089 57.5317 36.0359 57.5317C28.5629 57.5317 21.638 58.3352 14.7043 60.1051Z" fill="#080F1C"></path><path fill-rule="evenodd" clip-rule="evenodd" d="M50.5056 58.7733C48.3863 58.7733 32.455 58.3354 20.6161 58.9193C20.9084 55.9265 23.1739 58.2624 20.1045 54.8316C15.6467 49.8679 14.6236 44.1013 14.0389 37.6047C11.335 38.9916 10.7504 41.6194 8.70413 43.5173C6.95022 45.1232 6.87714 38.8456 7.16946 38.0427C10.3119 29.7942 27.0471 23.0786 18.6429 14.1002C18.7891 14.1002 18.9353 14.1002 19.0814 14.1732C22.37 14.7572 19.8853 14.2462 17.6929 13.0053C15.1351 11.6184 13.3081 10.8154 11.9927 11.2534C14.112 7.31163 19.8122 11.3994 22.7354 10.7424C27.4125 9.72048 29.751 9.72048 33.5511 13.2972C35.7435 5.77873 41.663 7.45762 47.1439 6.87366C50.0671 6.58168 59.5674 3.66187 61.1021 7.09265C59.4944 6.58168 53.9403 9.06352 52.5518 9.64748C49.1171 11.0344 47.8017 12.8593 49.6286 11.5454C50.2133 11.1074 50.871 10.7424 51.6749 10.6694C51.8941 11.1804 47.8747 17.531 47.5093 19.1369C51.1633 20.5968 55.9135 29.9402 57.1558 33.006C59.7136 39.2106 62.5637 48.043 59.5674 47.751C58.5443 47.678 55.8404 42.7144 54.4519 41.7654C54.1596 43.0793 52.1864 49.5759 52.1864 49.5759C51.9672 50.2329 50.871 53.7367 48.167 56.3645C47.9478 56.5105 47.9478 56.9484 48.167 57.0214C49.1902 57.3864 50.2133 58.2624 50.5056 58.7733ZM48.9709 52.1308C55.2558 41.7654 56.4981 15.9251 39.3244 22.2757C34.7204 23.9546 35.0127 29.8672 33.3319 33.444C31.1395 38.3346 30.3357 42.2764 31.6511 47.5321C31.7242 47.97 33.0396 50.9628 34.2819 53.0797C36.4743 56.8025 45.0977 58.4813 48.9709 52.1308ZM31.2857 51.2548C31.1395 51.7658 30.8472 52.2767 30.628 52.3497C29.0202 53.2257 27.6317 48.846 27.2663 48.043C24.1239 41.6194 25.6586 34.1739 28.2894 27.8963C29.0202 26.1444 31.3588 23.5896 29.0933 22.0567C28.801 21.8377 24.3431 21.3267 24.4893 21.0348C22.7354 19.7938 19.3737 26.5094 18.2045 27.8963C13.3812 33.298 16.2313 48.408 21.0546 53.0067C23.6854 55.4885 33.3319 57.8244 31.578 51.4738C31.4318 51.0358 31.5049 50.6709 31.2857 51.2548Z" fill="#080F1C"></path><path fill-rule="evenodd" clip-rule="evenodd" d="M27.3407 13.2241C27.3407 12.2751 26.5366 11.4722 25.5863 11.4722C24.636 11.4722 23.8319 12.2751 23.8319 13.2241C23.8319 14.173 24.636 14.9759 25.5863 14.9759C26.5366 14.9759 27.3407 14.173 27.3407 13.2241Z" fill="white"></path><path fill-rule="evenodd" clip-rule="evenodd" d="M43.491 10.5981C43.491 9.64914 42.6869 8.84619 41.7366 8.84619C40.7863 8.84619 39.9822 9.64914 39.9822 10.5981C39.9822 11.547 40.7863 12.35 41.7366 12.35C42.6869 12.35 43.491 11.547 43.491 10.5981Z" fill="white"></path><path fill-rule="evenodd" clip-rule="evenodd" d="M48.9705 52.1305C55.2553 41.7652 56.4977 15.9249 39.324 22.2755C34.72 23.9543 35.0123 29.867 33.3315 33.4437C31.1391 38.3344 30.3352 42.2762 31.6507 47.5318C31.7237 47.9698 33.0392 50.9626 34.2815 53.0795C36.4739 56.8022 45.0973 58.4811 48.9705 52.1305Z" fill="white"></path><path fill-rule="evenodd" clip-rule="evenodd" d="M31.2856 51.257C31.1394 51.768 30.8471 52.2789 30.6278 52.3519C29.0201 53.2279 27.6316 48.8481 27.2662 48.0452C24.1238 41.6216 25.6584 34.1761 28.2893 27.8985C29.0201 26.1466 31.3586 23.5918 29.0932 22.0589C28.8009 21.8399 24.343 21.3289 24.4892 21.0369C22.7353 19.796 19.3736 26.5116 18.2043 27.8985C13.3811 33.3001 16.2312 48.4102 21.0544 53.0089C23.6853 55.4907 33.3318 57.8266 31.5779 51.476C31.4317 51.038 31.5048 50.673 31.2856 51.257Z" fill="white"></path><defs><linearGradient id="paint0_linear_270_203" x1="36.0001" y1="3.85693" x2="36.0001" y2="68.1428" gradientUnits="userSpaceOnUse"><stop stop-color="#FFE68D"></stop><stop offset="1" stop-color="#FB9953"></stop></linearGradient></defs></svg> 