<?xml version="1.0" encoding="UTF-8"?> <svg xmlns="http://www.w3.org/2000/svg" width="244" height="70" viewBox="0 0 244 70" fill="none"><g clip-path="url(#clip0_1468_105)"><path d="M84.3239 40.0991H91.0979C92.1531 40.0991 92.9944 39.8414 93.6187 39.3289C94.2431 38.8163 94.5567 38.1163 94.5567 37.2318C94.5567 36.3473 94.2431 35.6473 93.6187 35.1347C92.9914 34.6222 92.1531 34.3644 91.0979 34.3644H84.0279L84.9131 33.31V48.4523H82.9492V32.6364H91.18C92.2498 32.6364 93.1849 32.8297 93.988 33.2163C94.7912 33.6029 95.4155 34.1418 95.8669 34.8301C96.3183 35.5184 96.5411 36.3209 96.5411 37.2347C96.5411 38.1485 96.3154 38.9276 95.8669 39.6159C95.4155 40.3042 94.7912 40.8431 93.988 41.2297C93.1849 41.6163 92.2498 41.8096 91.18 41.8096H84.321V40.1021L84.3239 40.0991ZM87.8267 41.0481H90.2537L96.8811 48.4494H94.4131L87.8296 41.0481H87.8267Z" fill="#ffffff"></path><path d="M101.017 40.5414V47.9866L99.9819 46.7213H112.349V48.4494H99.0117V32.6335H112.243V34.3615H99.9819L101.017 33.1167V40.5385V40.5414ZM111.78 39.6979V41.3849H99.7709V39.6979H111.78Z" fill="#ffffff"></path><path d="M123.473 32.6335L131.282 48.4494H129.13L121.785 33.3071H122.84L115.494 48.4494H113.363L121.151 32.6335H123.473ZM116.655 44.5276V42.8611H127.799V44.5276H116.655Z" fill="#ffffff"></path><path d="M135.048 32.6335V47.5648L134.163 46.7008H146.128V48.4494H133.084V32.6335H135.048Z" fill="#ffffff"></path><path d="M156.364 40.5414V47.9866L155.33 46.7213H167.696V48.4494H154.359V32.6335H167.591V34.3615H155.33L156.364 33.1167V40.5385V40.5414ZM167.128 39.6979V41.3849H155.119V39.6979H167.128Z" fill="#ffffff"></path><path d="M169.722 43.3238H171.706C171.806 44.0678 172.099 44.7238 172.591 45.2862C173.084 45.8485 173.737 46.2849 174.555 46.5925C175.37 46.9029 176.308 47.0552 177.363 47.0552C178.952 47.0552 180.215 46.7858 181.15 46.2439C182.085 45.7021 182.554 44.9611 182.554 44.018C182.554 43.3004 182.261 42.7527 181.678 42.372C181.095 41.9941 180.072 41.7188 178.606 41.5489L175.566 41.1682C173.638 40.9427 172.254 40.4828 171.41 39.7887C170.566 39.0916 170.144 38.1544 170.144 36.9741C170.144 36.0339 170.425 35.2138 170.988 34.5167C171.551 33.8197 172.342 33.2866 173.362 32.9146C174.382 32.5427 175.566 32.3552 176.918 32.3552C178.269 32.3552 179.515 32.5632 180.57 32.9761C181.625 33.3891 182.466 33.9661 183.091 34.7042C183.715 35.4423 184.058 36.3092 184.114 37.3079H182.129C182.044 36.6343 181.778 36.0544 181.326 35.5682C180.875 35.082 180.271 34.7042 179.512 34.4289C178.753 34.1536 177.873 34.0188 176.874 34.0188C175.426 34.0188 174.268 34.2766 173.403 34.7891C172.539 35.3017 172.105 36.0163 172.105 36.9301C172.105 37.633 172.389 38.1749 172.961 38.5527C173.532 38.9305 174.505 39.2059 175.883 39.3757L178.879 39.7535C180.256 39.9351 181.361 40.187 182.191 40.5033C183.02 40.8197 183.615 41.2473 183.973 41.7891C184.331 42.331 184.512 43.0163 184.512 43.8452C184.512 44.8439 184.213 45.7079 183.615 46.4402C183.017 47.1724 182.179 47.7347 181.103 48.1272C180.028 48.5197 178.764 48.7188 177.316 48.7188C175.868 48.7188 174.584 48.4904 173.465 48.0335C172.345 47.5766 171.457 46.9439 170.794 46.1356C170.132 45.3272 169.774 44.39 169.719 43.3209L169.722 43.3238Z" fill="#ffffff"></path><path d="M184.654 32.6335H200.231V34.3849H184.654V32.6335ZM191.469 33.5824H193.433V48.4494H191.469V33.5824Z" fill="#ffffff"></path><path d="M207.996 32.6335L215.805 48.4494H213.654L206.308 33.3071H207.363L200.018 48.4494H197.887L205.675 32.6335H207.996ZM201.178 44.5276V42.8611H212.323V44.5276H201.178Z" fill="#ffffff"></path><path d="M213.418 32.6335H228.994V34.3849H213.418V32.6335ZM220.236 33.5824H222.2V48.4494H220.236V33.5824Z" fill="#ffffff"></path><path d="M232.667 40.5414V47.9866L231.632 46.7213H243.999V48.4494H230.662V32.6335H243.893V34.3615H231.632L232.667 33.1167V40.5385V40.5414ZM243.43 39.6979V41.3849H231.421V39.6979H243.43Z" fill="#ffffff"></path><path d="M83.0703 54.5121H83.9966V61.9808H83.0703V54.5121Z" fill="#ffffff"></path><path d="M95.54 54.5121V61.9808H94.6431V54.7318L95.0007 54.7406L91.2224 61.9808H90.2346L86.4563 54.7523L86.8139 54.7435V61.9837H85.9258V54.5151H87.3298L91.0172 61.6644H90.4398L94.1184 54.5151H95.5342L95.54 54.5121Z" fill="#ffffff"></path><path d="M107.071 54.5121V61.9808H106.174V54.7318L106.532 54.7406L102.754 61.9808H101.766L97.9876 54.7523L98.3452 54.7435V61.9837H97.457V54.5151H98.8611L102.548 61.6644H101.971L105.65 54.5151H107.065L107.071 54.5121Z" fill="#ffffff"></path><path d="M112.761 62.1096C111.931 62.1096 111.199 61.9456 110.568 61.6205C109.938 61.2954 109.446 60.8414 109.094 60.2615C108.742 59.6816 108.566 59.008 108.566 58.2465C108.566 57.4849 108.742 56.8113 109.094 56.2314C109.446 55.6515 109.938 55.1975 110.568 54.8724C111.199 54.5473 111.934 54.3833 112.77 54.3833C113.605 54.3833 114.332 54.5473 114.962 54.8724C115.592 55.1975 116.085 55.6515 116.437 56.2314C116.788 56.8113 116.964 57.4849 116.964 58.2465C116.964 59.008 116.788 59.6816 116.437 60.2615C116.085 60.8414 115.592 61.2954 114.962 61.6205C114.332 61.9456 113.596 62.1096 112.761 62.1096ZM112.761 61.2632C113.426 61.2632 114.001 61.1402 114.484 60.8942C114.968 60.6481 115.343 60.2996 115.61 59.8427C115.877 59.3887 116.009 58.8527 116.009 58.2347C116.009 57.6167 115.877 57.0925 115.61 56.6414C115.343 56.1904 114.968 55.8419 114.484 55.5958C113.998 55.3498 113.423 55.2268 112.761 55.2268C112.098 55.2268 111.533 55.3498 111.046 55.5958C110.563 55.8419 110.184 56.1904 109.921 56.6414C109.654 57.0925 109.522 57.6285 109.522 58.2435C109.522 58.8586 109.654 59.3858 109.921 59.8427C110.187 60.2996 110.563 60.6481 111.046 60.8942C111.53 61.1402 112.101 61.2632 112.761 61.2632Z" fill="#ffffff"></path><path d="M122.686 58.2465L122.794 58.018C123.392 58.018 123.876 58.1088 124.248 58.2875C124.62 58.4661 124.893 58.7034 125.066 58.9933C125.239 59.2862 125.324 59.6113 125.324 59.9686C125.324 60.367 125.23 60.7184 125.04 61.0201C124.849 61.3218 124.574 61.559 124.207 61.726C123.841 61.8958 123.389 61.9808 122.853 61.9808H118.148V54.5121H122.683C123.375 54.5121 123.905 54.6732 124.272 54.9954C124.641 55.3176 124.826 55.7569 124.826 56.3134C124.826 56.6063 124.755 56.8933 124.618 57.1745C124.477 57.4557 124.251 57.6958 123.94 57.8921C123.627 58.0883 123.211 58.2055 122.686 58.2465ZM119.098 61.6732L118.741 61.2046H122.818C123.31 61.2046 123.694 61.0963 123.97 60.8766C124.245 60.6569 124.383 60.3377 124.383 59.9218C124.383 59.4707 124.219 59.1251 123.894 58.885C123.568 58.6448 123.087 58.5276 122.448 58.5276H118.661V57.772H122.399C122.824 57.772 123.178 57.6578 123.46 57.4293C123.741 57.2009 123.882 56.8611 123.882 56.4071C123.882 56.082 123.767 55.8155 123.539 55.6046C123.31 55.3937 122.97 55.2912 122.516 55.2912H118.738L119.095 54.8226V61.6732H119.098Z" fill="#ffffff"></path><path d="M126.791 54.5121H127.717V61.9808H126.791V54.5121Z" fill="#ffffff"></path><path d="M130.579 54.5121V61.5619L130.159 61.1548H135.811V61.9808H129.652V54.5121H130.579Z" fill="#ffffff"></path><path d="M136.986 54.5121H137.913V61.9808H136.986V54.5121Z" fill="#ffffff"></path><path d="M140.524 58.2465V61.7611L140.034 61.1636H145.873V61.9808H139.574V54.5121H145.823V55.3293H140.034L140.524 54.7406V58.2465ZM145.607 57.8481V58.6448H139.935V57.8481H145.607Z" fill="#ffffff"></path><path d="M154.348 61.5121L153.891 61.5414V54.5121H154.788V61.9808H153.592L147.891 54.9515L148.348 54.9222V61.9837H147.451V54.5151H148.668L154.348 61.5151V61.5121Z" fill="#ffffff"></path><path d="M160.356 61.6117H159.878L163.275 54.5121H164.281L160.614 61.9808H159.597L155.918 54.5121H156.935L160.353 61.6117H160.356Z" fill="#ffffff"></path><path d="M166.098 58.2465V61.7611L165.609 61.1636H171.448V61.9808H165.148V54.5121H171.398V55.3293H165.609L166.098 54.7406V58.2465ZM171.181 57.8481V58.6448H165.509V57.8481H171.181Z" fill="#ffffff"></path><path d="M173.673 58.0385H176.871C177.369 58.0385 177.765 57.9184 178.061 57.6753C178.357 57.4322 178.504 57.1013 178.504 56.6854C178.504 56.2695 178.357 55.9356 178.061 55.6954C177.765 55.4523 177.369 55.3322 176.871 55.3322H173.532L173.952 54.8343V61.9837H173.025V54.5151H176.912C177.416 54.5151 177.859 54.6059 178.237 54.7875C178.615 54.969 178.911 55.2239 179.125 55.549C179.336 55.8741 179.445 56.2519 179.445 56.6854C179.445 57.1188 179.339 57.485 179.125 57.8101C178.911 58.1352 178.618 58.39 178.237 58.5716C177.859 58.7531 177.416 58.8439 176.912 58.8439H173.673V58.0385ZM175.326 58.4866H176.472L179.603 61.9808H178.436L175.326 58.4866Z" fill="#ffffff"></path><path d="M190.603 54.5121V61.9808H189.706V54.7318L190.063 54.7406L186.285 61.9808H185.297L181.519 54.7523L181.876 54.7435V61.9837H180.988V54.5151H182.392L186.08 61.6644H185.502L189.181 54.5151H190.597L190.603 54.5121Z" fill="#ffffff"></path><path d="M192.525 54.5121H193.452V61.9808H192.525V54.5121Z" fill="#ffffff"></path><path d="M194.619 54.5121H201.973V55.3381H194.619V54.5121ZM197.838 54.9603H198.764V61.9808H197.838V54.9603Z" fill="#ffffff"></path><path d="M202.385 54.5121H209.739V55.3381H202.385V54.5121ZM205.603 54.9603H206.529V61.9808H205.603V54.9603Z" fill="#ffffff"></path><path d="M211.84 54.5121V61.5619L211.421 61.1548H217.072V61.9808H210.914V54.5121H211.84Z" fill="#ffffff"></path><path d="M218.6 58.8439C218.6 59.336 218.703 59.7636 218.908 60.1297C219.113 60.4958 219.403 60.777 219.781 60.9703C220.157 61.1665 220.599 61.2632 221.112 61.2632C221.625 61.2632 222.085 61.1665 222.458 60.9703C222.83 60.7741 223.117 60.4929 223.325 60.1297C223.53 59.7636 223.633 59.336 223.633 58.8439V54.5121H224.559V58.8732C224.559 59.5176 224.416 60.0829 224.125 60.5661C223.835 61.0523 223.434 61.4301 222.921 61.7025C222.405 61.9749 221.804 62.1096 221.112 62.1096C220.42 62.1096 219.837 61.9749 219.318 61.7025C218.799 61.4301 218.395 61.0523 218.108 60.5661C217.817 60.0829 217.674 59.5176 217.674 58.8732V54.5121H218.6V58.8439Z" fill="#ffffff"></path><path d="M233.288 61.5121L232.83 61.5414V54.5121H233.727V61.9808H232.531L226.83 54.9515L227.288 54.9222V61.9837H226.391V54.5151H227.607L233.288 61.5151V61.5121Z" fill="#ffffff"></path><path d="M243.055 58.7239C243.055 59.2013 242.967 59.6464 242.791 60.0536C242.615 60.4607 242.363 60.8209 242.038 61.1285C241.712 61.436 241.322 61.6791 240.871 61.849C240.42 62.0218 239.91 62.1067 239.347 62.1067C238.749 62.1067 238.198 62.0159 237.697 61.8314C237.195 61.6498 236.759 61.3891 236.392 61.0494C236.026 60.7096 235.739 60.3054 235.539 59.828C235.34 59.3536 235.24 58.8234 235.24 58.2406C235.24 57.6577 235.343 57.1276 235.545 56.6531C235.747 56.1787 236.035 55.7716 236.401 55.4318C236.767 55.0921 237.207 54.8314 237.717 54.6498C238.224 54.4682 238.781 54.3745 239.385 54.3745C240.115 54.3745 240.763 54.5004 241.328 54.7494C241.894 54.9983 242.348 55.3352 242.694 55.7598C243.04 56.1845 243.245 56.6736 243.313 57.2243H242.357C242.284 56.8201 242.114 56.4657 241.85 56.164C241.583 55.8623 241.243 55.628 240.827 55.4611C240.411 55.2941 239.924 55.2121 239.367 55.2121C238.722 55.2121 238.163 55.3352 237.688 55.5812C237.213 55.8272 236.844 56.1757 236.583 56.6268C236.319 57.0778 236.19 57.6167 236.19 58.2406C236.19 58.8644 236.322 59.4034 236.589 59.8603C236.855 60.3172 237.231 60.6657 237.714 60.9146C238.198 61.1636 238.769 61.2895 239.429 61.2895C240.088 61.2895 240.622 61.1724 241.097 60.941C241.572 60.7096 241.941 60.3875 242.208 59.9803C242.474 59.5732 242.612 59.1046 242.627 58.5803L243.055 58.7209V58.7239ZM239.795 59.1339V58.3958H243.404V61.9808H242.677L242.586 58.8146L242.844 59.1339H239.795Z" fill="#ffffff"></path><path d="M55.71 40.8197L69.2344 24.4941H63.1786L45.7205 45.4414V24.4941H40.248V63.7732H45.7205V52.7109L52.2424 44.8849L68.0062 63.7732H74.191L55.71 40.8226V40.8197ZM36.118 33.7084C34.7491 30.7619 32.7559 28.4891 30.1413 26.8929C27.5238 25.2937 24.3112 24.4941 20.5065 24.4941H6.35186V63.7732H20.5065C23.4377 63.7732 26.0054 63.3046 28.2067 62.3732C30.408 61.4389 32.2517 60.1004 33.7379 58.3577C35.224 56.6151 36.3349 54.5414 37.0677 52.1368C37.8005 49.7322 38.1698 47.0699 38.1698 44.1615C38.1698 40.1372 37.4839 36.6548 36.118 33.7084ZM31.7769 50.9213C31.1995 52.8778 30.3582 54.4946 29.2473 55.7715C28.1364 57.0456 26.8203 57.9887 25.2931 58.6008C23.766 59.213 22.0718 59.5176 20.2075 59.5176H11.7628V28.7H20.2075C22.7049 28.7 24.8974 29.2389 26.7792 30.3138C28.664 31.3916 30.1091 33.0552 31.1203 35.2987C32.1316 37.5452 32.6387 40.4623 32.6387 44.0531C32.6387 46.6774 32.3485 48.9649 31.7769 50.9243V50.9213ZM74.191 58.3285V0L0 14.1113V70H74.191V67.0331H2.96928V16.5657L71.2217 3.58494V54.4418L74.191 58.3285Z" fill="#ffffff"></path></g><defs><clipPath id="clip0_1468_105"><rect width="244" height="70" fill="white"></rect></clipPath></defs></svg> 